<mxfile host="app.diagrams.net" modified="2024-05-28T12:46:44.033Z" agent="Mozilla/5.0 (Windows NT 10.0; Win64; x64) AppleWebKit/537.36 (KHTML, like Gecko) Chrome/121.0.0.0 Safari/537.36" etag="nwI6CZYOPJsorGCLtNba" version="24.4.9" type="device">
  <diagram name="PÃ¡gina-1" id="dwvpLyT5UvI6Y7iCLmmX">
    <mxGraphModel dx="1434" dy="772" grid="1" gridSize="10" guides="1" tooltips="1" connect="1" arrows="1" fold="1" page="1" pageScale="1" pageWidth="827" pageHeight="1169" math="0" shadow="0">
      <root>
        <mxCell id="0" />
        <mxCell id="1" parent="0" />
        <mxCell id="xVHLyGwYPvTKptaAiEEM-1" value="" style="shape=ext;double=1;rounded=1;whiteSpace=wrap;html=1;" vertex="1" parent="1">
          <mxGeometry x="260" y="200" width="450" height="800" as="geometry" />
        </mxCell>
        <mxCell id="xVHLyGwYPvTKptaAiEEM-55" value="" style="shape=table;startSize=0;container=1;collapsible=0;childLayout=tableLayout;fontSize=16;" vertex="1" parent="1">
          <mxGeometry x="295" y="350" width="380" height="77" as="geometry" />
        </mxCell>
        <mxCell id="xVHLyGwYPvTKptaAiEEM-56" value="" style="shape=tableRow;horizontal=0;startSize=0;swimlaneHead=0;swimlaneBody=0;strokeColor=inherit;top=0;left=0;bottom=0;right=0;collapsible=0;dropTarget=0;fillColor=none;points=[[0,0.5],[1,0.5]];portConstraint=eastwest;fontSize=16;" vertex="1" parent="xVHLyGwYPvTKptaAiEEM-55">
          <mxGeometry width="380" height="27" as="geometry" />
        </mxCell>
        <mxCell id="xVHLyGwYPvTKptaAiEEM-57" value="" style="shape=partialRectangle;html=1;whiteSpace=wrap;connectable=0;strokeColor=inherit;overflow=hidden;fillColor=none;top=0;left=0;bottom=0;right=0;pointerEvents=1;fontSize=16;" vertex="1" parent="xVHLyGwYPvTKptaAiEEM-56">
          <mxGeometry width="127" height="27" as="geometry">
            <mxRectangle width="127" height="27" as="alternateBounds" />
          </mxGeometry>
        </mxCell>
        <mxCell id="xVHLyGwYPvTKptaAiEEM-58" value="" style="shape=partialRectangle;html=1;whiteSpace=wrap;connectable=0;strokeColor=inherit;overflow=hidden;fillColor=none;top=0;left=0;bottom=0;right=0;pointerEvents=1;fontSize=16;" vertex="1" parent="xVHLyGwYPvTKptaAiEEM-56">
          <mxGeometry x="127" width="126" height="27" as="geometry">
            <mxRectangle width="126" height="27" as="alternateBounds" />
          </mxGeometry>
        </mxCell>
        <mxCell id="xVHLyGwYPvTKptaAiEEM-59" value="" style="shape=partialRectangle;html=1;whiteSpace=wrap;connectable=0;strokeColor=inherit;overflow=hidden;fillColor=none;top=0;left=0;bottom=0;right=0;pointerEvents=1;fontSize=16;" vertex="1" parent="xVHLyGwYPvTKptaAiEEM-56">
          <mxGeometry x="253" width="127" height="27" as="geometry">
            <mxRectangle width="127" height="27" as="alternateBounds" />
          </mxGeometry>
        </mxCell>
        <mxCell id="xVHLyGwYPvTKptaAiEEM-60" value="" style="shape=tableRow;horizontal=0;startSize=0;swimlaneHead=0;swimlaneBody=0;strokeColor=inherit;top=0;left=0;bottom=0;right=0;collapsible=0;dropTarget=0;fillColor=none;points=[[0,0.5],[1,0.5]];portConstraint=eastwest;fontSize=16;" vertex="1" parent="xVHLyGwYPvTKptaAiEEM-55">
          <mxGeometry y="27" width="380" height="23" as="geometry" />
        </mxCell>
        <mxCell id="xVHLyGwYPvTKptaAiEEM-61" value="" style="shape=partialRectangle;html=1;whiteSpace=wrap;connectable=0;strokeColor=inherit;overflow=hidden;fillColor=none;top=0;left=0;bottom=0;right=0;pointerEvents=1;fontSize=16;" vertex="1" parent="xVHLyGwYPvTKptaAiEEM-60">
          <mxGeometry width="127" height="23" as="geometry">
            <mxRectangle width="127" height="23" as="alternateBounds" />
          </mxGeometry>
        </mxCell>
        <mxCell id="xVHLyGwYPvTKptaAiEEM-62" value="" style="shape=partialRectangle;html=1;whiteSpace=wrap;connectable=0;strokeColor=inherit;overflow=hidden;fillColor=none;top=0;left=0;bottom=0;right=0;pointerEvents=1;fontSize=16;" vertex="1" parent="xVHLyGwYPvTKptaAiEEM-60">
          <mxGeometry x="127" width="126" height="23" as="geometry">
            <mxRectangle width="126" height="23" as="alternateBounds" />
          </mxGeometry>
        </mxCell>
        <mxCell id="xVHLyGwYPvTKptaAiEEM-63" value="" style="shape=partialRectangle;html=1;whiteSpace=wrap;connectable=0;strokeColor=inherit;overflow=hidden;fillColor=none;top=0;left=0;bottom=0;right=0;pointerEvents=1;fontSize=16;" vertex="1" parent="xVHLyGwYPvTKptaAiEEM-60">
          <mxGeometry x="253" width="127" height="23" as="geometry">
            <mxRectangle width="127" height="23" as="alternateBounds" />
          </mxGeometry>
        </mxCell>
        <mxCell id="xVHLyGwYPvTKptaAiEEM-64" value="" style="shape=tableRow;horizontal=0;startSize=0;swimlaneHead=0;swimlaneBody=0;strokeColor=inherit;top=0;left=0;bottom=0;right=0;collapsible=0;dropTarget=0;fillColor=none;points=[[0,0.5],[1,0.5]];portConstraint=eastwest;fontSize=16;" vertex="1" parent="xVHLyGwYPvTKptaAiEEM-55">
          <mxGeometry y="50" width="380" height="27" as="geometry" />
        </mxCell>
        <mxCell id="xVHLyGwYPvTKptaAiEEM-65" value="" style="shape=partialRectangle;html=1;whiteSpace=wrap;connectable=0;strokeColor=inherit;overflow=hidden;fillColor=none;top=0;left=0;bottom=0;right=0;pointerEvents=1;fontSize=16;" vertex="1" parent="xVHLyGwYPvTKptaAiEEM-64">
          <mxGeometry width="127" height="27" as="geometry">
            <mxRectangle width="127" height="27" as="alternateBounds" />
          </mxGeometry>
        </mxCell>
        <mxCell id="xVHLyGwYPvTKptaAiEEM-66" value="" style="shape=partialRectangle;html=1;whiteSpace=wrap;connectable=0;strokeColor=inherit;overflow=hidden;fillColor=none;top=0;left=0;bottom=0;right=0;pointerEvents=1;fontSize=16;" vertex="1" parent="xVHLyGwYPvTKptaAiEEM-64">
          <mxGeometry x="127" width="126" height="27" as="geometry">
            <mxRectangle width="126" height="27" as="alternateBounds" />
          </mxGeometry>
        </mxCell>
        <mxCell id="xVHLyGwYPvTKptaAiEEM-67" value="" style="shape=partialRectangle;html=1;whiteSpace=wrap;connectable=0;strokeColor=inherit;overflow=hidden;fillColor=none;top=0;left=0;bottom=0;right=0;pointerEvents=1;fontSize=16;" vertex="1" parent="xVHLyGwYPvTKptaAiEEM-64">
          <mxGeometry x="253" width="127" height="27" as="geometry">
            <mxRectangle width="127" height="27" as="alternateBounds" />
          </mxGeometry>
        </mxCell>
        <mxCell id="xVHLyGwYPvTKptaAiEEM-68" value="" style="shape=table;startSize=0;container=1;collapsible=0;childLayout=tableLayout;fontSize=16;" vertex="1" parent="1">
          <mxGeometry x="295" y="420" width="380" height="77" as="geometry" />
        </mxCell>
        <mxCell id="xVHLyGwYPvTKptaAiEEM-69" value="" style="shape=tableRow;horizontal=0;startSize=0;swimlaneHead=0;swimlaneBody=0;strokeColor=inherit;top=0;left=0;bottom=0;right=0;collapsible=0;dropTarget=0;fillColor=none;points=[[0,0.5],[1,0.5]];portConstraint=eastwest;fontSize=16;" vertex="1" parent="xVHLyGwYPvTKptaAiEEM-68">
          <mxGeometry width="380" height="27" as="geometry" />
        </mxCell>
        <mxCell id="xVHLyGwYPvTKptaAiEEM-70" value="" style="shape=partialRectangle;html=1;whiteSpace=wrap;connectable=0;strokeColor=inherit;overflow=hidden;fillColor=none;top=0;left=0;bottom=0;right=0;pointerEvents=1;fontSize=16;" vertex="1" parent="xVHLyGwYPvTKptaAiEEM-69">
          <mxGeometry width="127" height="27" as="geometry">
            <mxRectangle width="127" height="27" as="alternateBounds" />
          </mxGeometry>
        </mxCell>
        <mxCell id="xVHLyGwYPvTKptaAiEEM-71" value="" style="shape=partialRectangle;html=1;whiteSpace=wrap;connectable=0;strokeColor=inherit;overflow=hidden;fillColor=none;top=0;left=0;bottom=0;right=0;pointerEvents=1;fontSize=16;" vertex="1" parent="xVHLyGwYPvTKptaAiEEM-69">
          <mxGeometry x="127" width="126" height="27" as="geometry">
            <mxRectangle width="126" height="27" as="alternateBounds" />
          </mxGeometry>
        </mxCell>
        <mxCell id="xVHLyGwYPvTKptaAiEEM-72" value="" style="shape=partialRectangle;html=1;whiteSpace=wrap;connectable=0;strokeColor=inherit;overflow=hidden;fillColor=none;top=0;left=0;bottom=0;right=0;pointerEvents=1;fontSize=16;" vertex="1" parent="xVHLyGwYPvTKptaAiEEM-69">
          <mxGeometry x="253" width="127" height="27" as="geometry">
            <mxRectangle width="127" height="27" as="alternateBounds" />
          </mxGeometry>
        </mxCell>
        <mxCell id="xVHLyGwYPvTKptaAiEEM-73" value="" style="shape=tableRow;horizontal=0;startSize=0;swimlaneHead=0;swimlaneBody=0;strokeColor=inherit;top=0;left=0;bottom=0;right=0;collapsible=0;dropTarget=0;fillColor=none;points=[[0,0.5],[1,0.5]];portConstraint=eastwest;fontSize=16;" vertex="1" parent="xVHLyGwYPvTKptaAiEEM-68">
          <mxGeometry y="27" width="380" height="23" as="geometry" />
        </mxCell>
        <mxCell id="xVHLyGwYPvTKptaAiEEM-74" value="" style="shape=partialRectangle;html=1;whiteSpace=wrap;connectable=0;strokeColor=inherit;overflow=hidden;fillColor=none;top=0;left=0;bottom=0;right=0;pointerEvents=1;fontSize=16;" vertex="1" parent="xVHLyGwYPvTKptaAiEEM-73">
          <mxGeometry width="127" height="23" as="geometry">
            <mxRectangle width="127" height="23" as="alternateBounds" />
          </mxGeometry>
        </mxCell>
        <mxCell id="xVHLyGwYPvTKptaAiEEM-75" value="" style="shape=partialRectangle;html=1;whiteSpace=wrap;connectable=0;strokeColor=inherit;overflow=hidden;fillColor=none;top=0;left=0;bottom=0;right=0;pointerEvents=1;fontSize=16;" vertex="1" parent="xVHLyGwYPvTKptaAiEEM-73">
          <mxGeometry x="127" width="126" height="23" as="geometry">
            <mxRectangle width="126" height="23" as="alternateBounds" />
          </mxGeometry>
        </mxCell>
        <mxCell id="xVHLyGwYPvTKptaAiEEM-76" value="" style="shape=partialRectangle;html=1;whiteSpace=wrap;connectable=0;strokeColor=inherit;overflow=hidden;fillColor=none;top=0;left=0;bottom=0;right=0;pointerEvents=1;fontSize=16;" vertex="1" parent="xVHLyGwYPvTKptaAiEEM-73">
          <mxGeometry x="253" width="127" height="23" as="geometry">
            <mxRectangle width="127" height="23" as="alternateBounds" />
          </mxGeometry>
        </mxCell>
        <mxCell id="xVHLyGwYPvTKptaAiEEM-77" value="" style="shape=tableRow;horizontal=0;startSize=0;swimlaneHead=0;swimlaneBody=0;strokeColor=inherit;top=0;left=0;bottom=0;right=0;collapsible=0;dropTarget=0;fillColor=none;points=[[0,0.5],[1,0.5]];portConstraint=eastwest;fontSize=16;" vertex="1" parent="xVHLyGwYPvTKptaAiEEM-68">
          <mxGeometry y="50" width="380" height="27" as="geometry" />
        </mxCell>
        <mxCell id="xVHLyGwYPvTKptaAiEEM-78" value="" style="shape=partialRectangle;html=1;whiteSpace=wrap;connectable=0;strokeColor=inherit;overflow=hidden;fillColor=none;top=0;left=0;bottom=0;right=0;pointerEvents=1;fontSize=16;" vertex="1" parent="xVHLyGwYPvTKptaAiEEM-77">
          <mxGeometry width="127" height="27" as="geometry">
            <mxRectangle width="127" height="27" as="alternateBounds" />
          </mxGeometry>
        </mxCell>
        <mxCell id="xVHLyGwYPvTKptaAiEEM-79" value="" style="shape=partialRectangle;html=1;whiteSpace=wrap;connectable=0;strokeColor=inherit;overflow=hidden;fillColor=none;top=0;left=0;bottom=0;right=0;pointerEvents=1;fontSize=16;" vertex="1" parent="xVHLyGwYPvTKptaAiEEM-77">
          <mxGeometry x="127" width="126" height="27" as="geometry">
            <mxRectangle width="126" height="27" as="alternateBounds" />
          </mxGeometry>
        </mxCell>
        <mxCell id="xVHLyGwYPvTKptaAiEEM-80" value="" style="shape=partialRectangle;html=1;whiteSpace=wrap;connectable=0;strokeColor=inherit;overflow=hidden;fillColor=none;top=0;left=0;bottom=0;right=0;pointerEvents=1;fontSize=16;" vertex="1" parent="xVHLyGwYPvTKptaAiEEM-77">
          <mxGeometry x="253" width="127" height="27" as="geometry">
            <mxRectangle width="127" height="27" as="alternateBounds" />
          </mxGeometry>
        </mxCell>
        <mxCell id="xVHLyGwYPvTKptaAiEEM-81" value="" style="shape=table;startSize=0;container=1;collapsible=0;childLayout=tableLayout;fontSize=16;" vertex="1" parent="1">
          <mxGeometry x="295" y="497" width="380" height="77" as="geometry" />
        </mxCell>
        <mxCell id="xVHLyGwYPvTKptaAiEEM-82" value="" style="shape=tableRow;horizontal=0;startSize=0;swimlaneHead=0;swimlaneBody=0;strokeColor=inherit;top=0;left=0;bottom=0;right=0;collapsible=0;dropTarget=0;fillColor=none;points=[[0,0.5],[1,0.5]];portConstraint=eastwest;fontSize=16;" vertex="1" parent="xVHLyGwYPvTKptaAiEEM-81">
          <mxGeometry width="380" height="27" as="geometry" />
        </mxCell>
        <mxCell id="xVHLyGwYPvTKptaAiEEM-83" value="" style="shape=partialRectangle;html=1;whiteSpace=wrap;connectable=0;strokeColor=inherit;overflow=hidden;fillColor=none;top=0;left=0;bottom=0;right=0;pointerEvents=1;fontSize=16;" vertex="1" parent="xVHLyGwYPvTKptaAiEEM-82">
          <mxGeometry width="127" height="27" as="geometry">
            <mxRectangle width="127" height="27" as="alternateBounds" />
          </mxGeometry>
        </mxCell>
        <mxCell id="xVHLyGwYPvTKptaAiEEM-84" value="" style="shape=partialRectangle;html=1;whiteSpace=wrap;connectable=0;strokeColor=inherit;overflow=hidden;fillColor=none;top=0;left=0;bottom=0;right=0;pointerEvents=1;fontSize=16;" vertex="1" parent="xVHLyGwYPvTKptaAiEEM-82">
          <mxGeometry x="127" width="126" height="27" as="geometry">
            <mxRectangle width="126" height="27" as="alternateBounds" />
          </mxGeometry>
        </mxCell>
        <mxCell id="xVHLyGwYPvTKptaAiEEM-85" value="" style="shape=partialRectangle;html=1;whiteSpace=wrap;connectable=0;strokeColor=inherit;overflow=hidden;fillColor=none;top=0;left=0;bottom=0;right=0;pointerEvents=1;fontSize=16;" vertex="1" parent="xVHLyGwYPvTKptaAiEEM-82">
          <mxGeometry x="253" width="127" height="27" as="geometry">
            <mxRectangle width="127" height="27" as="alternateBounds" />
          </mxGeometry>
        </mxCell>
        <mxCell id="xVHLyGwYPvTKptaAiEEM-86" value="" style="shape=tableRow;horizontal=0;startSize=0;swimlaneHead=0;swimlaneBody=0;strokeColor=inherit;top=0;left=0;bottom=0;right=0;collapsible=0;dropTarget=0;fillColor=none;points=[[0,0.5],[1,0.5]];portConstraint=eastwest;fontSize=16;" vertex="1" parent="xVHLyGwYPvTKptaAiEEM-81">
          <mxGeometry y="27" width="380" height="23" as="geometry" />
        </mxCell>
        <mxCell id="xVHLyGwYPvTKptaAiEEM-87" value="" style="shape=partialRectangle;html=1;whiteSpace=wrap;connectable=0;strokeColor=inherit;overflow=hidden;fillColor=none;top=0;left=0;bottom=0;right=0;pointerEvents=1;fontSize=16;" vertex="1" parent="xVHLyGwYPvTKptaAiEEM-86">
          <mxGeometry width="127" height="23" as="geometry">
            <mxRectangle width="127" height="23" as="alternateBounds" />
          </mxGeometry>
        </mxCell>
        <mxCell id="xVHLyGwYPvTKptaAiEEM-88" value="" style="shape=partialRectangle;html=1;whiteSpace=wrap;connectable=0;strokeColor=inherit;overflow=hidden;fillColor=none;top=0;left=0;bottom=0;right=0;pointerEvents=1;fontSize=16;" vertex="1" parent="xVHLyGwYPvTKptaAiEEM-86">
          <mxGeometry x="127" width="126" height="23" as="geometry">
            <mxRectangle width="126" height="23" as="alternateBounds" />
          </mxGeometry>
        </mxCell>
        <mxCell id="xVHLyGwYPvTKptaAiEEM-89" value="" style="shape=partialRectangle;html=1;whiteSpace=wrap;connectable=0;strokeColor=inherit;overflow=hidden;fillColor=none;top=0;left=0;bottom=0;right=0;pointerEvents=1;fontSize=16;" vertex="1" parent="xVHLyGwYPvTKptaAiEEM-86">
          <mxGeometry x="253" width="127" height="23" as="geometry">
            <mxRectangle width="127" height="23" as="alternateBounds" />
          </mxGeometry>
        </mxCell>
        <mxCell id="xVHLyGwYPvTKptaAiEEM-90" value="" style="shape=tableRow;horizontal=0;startSize=0;swimlaneHead=0;swimlaneBody=0;strokeColor=inherit;top=0;left=0;bottom=0;right=0;collapsible=0;dropTarget=0;fillColor=none;points=[[0,0.5],[1,0.5]];portConstraint=eastwest;fontSize=16;" vertex="1" parent="xVHLyGwYPvTKptaAiEEM-81">
          <mxGeometry y="50" width="380" height="27" as="geometry" />
        </mxCell>
        <mxCell id="xVHLyGwYPvTKptaAiEEM-91" value="" style="shape=partialRectangle;html=1;whiteSpace=wrap;connectable=0;strokeColor=inherit;overflow=hidden;fillColor=none;top=0;left=0;bottom=0;right=0;pointerEvents=1;fontSize=16;" vertex="1" parent="xVHLyGwYPvTKptaAiEEM-90">
          <mxGeometry width="127" height="27" as="geometry">
            <mxRectangle width="127" height="27" as="alternateBounds" />
          </mxGeometry>
        </mxCell>
        <mxCell id="xVHLyGwYPvTKptaAiEEM-92" value="" style="shape=partialRectangle;html=1;whiteSpace=wrap;connectable=0;strokeColor=inherit;overflow=hidden;fillColor=none;top=0;left=0;bottom=0;right=0;pointerEvents=1;fontSize=16;" vertex="1" parent="xVHLyGwYPvTKptaAiEEM-90">
          <mxGeometry x="127" width="126" height="27" as="geometry">
            <mxRectangle width="126" height="27" as="alternateBounds" />
          </mxGeometry>
        </mxCell>
        <mxCell id="xVHLyGwYPvTKptaAiEEM-93" value="" style="shape=partialRectangle;html=1;whiteSpace=wrap;connectable=0;strokeColor=inherit;overflow=hidden;fillColor=none;top=0;left=0;bottom=0;right=0;pointerEvents=1;fontSize=16;" vertex="1" parent="xVHLyGwYPvTKptaAiEEM-90">
          <mxGeometry x="253" width="127" height="27" as="geometry">
            <mxRectangle width="127" height="27" as="alternateBounds" />
          </mxGeometry>
        </mxCell>
        <mxCell id="xVHLyGwYPvTKptaAiEEM-94" value="" style="shape=table;startSize=0;container=1;collapsible=0;childLayout=tableLayout;fontSize=16;" vertex="1" parent="1">
          <mxGeometry x="295" y="574" width="380" height="77" as="geometry" />
        </mxCell>
        <mxCell id="xVHLyGwYPvTKptaAiEEM-95" value="" style="shape=tableRow;horizontal=0;startSize=0;swimlaneHead=0;swimlaneBody=0;strokeColor=inherit;top=0;left=0;bottom=0;right=0;collapsible=0;dropTarget=0;fillColor=none;points=[[0,0.5],[1,0.5]];portConstraint=eastwest;fontSize=16;" vertex="1" parent="xVHLyGwYPvTKptaAiEEM-94">
          <mxGeometry width="380" height="27" as="geometry" />
        </mxCell>
        <mxCell id="xVHLyGwYPvTKptaAiEEM-96" value="" style="shape=partialRectangle;html=1;whiteSpace=wrap;connectable=0;strokeColor=inherit;overflow=hidden;fillColor=none;top=0;left=0;bottom=0;right=0;pointerEvents=1;fontSize=16;" vertex="1" parent="xVHLyGwYPvTKptaAiEEM-95">
          <mxGeometry width="127" height="27" as="geometry">
            <mxRectangle width="127" height="27" as="alternateBounds" />
          </mxGeometry>
        </mxCell>
        <mxCell id="xVHLyGwYPvTKptaAiEEM-97" value="" style="shape=partialRectangle;html=1;whiteSpace=wrap;connectable=0;strokeColor=inherit;overflow=hidden;fillColor=none;top=0;left=0;bottom=0;right=0;pointerEvents=1;fontSize=16;" vertex="1" parent="xVHLyGwYPvTKptaAiEEM-95">
          <mxGeometry x="127" width="126" height="27" as="geometry">
            <mxRectangle width="126" height="27" as="alternateBounds" />
          </mxGeometry>
        </mxCell>
        <mxCell id="xVHLyGwYPvTKptaAiEEM-98" value="" style="shape=partialRectangle;html=1;whiteSpace=wrap;connectable=0;strokeColor=inherit;overflow=hidden;fillColor=none;top=0;left=0;bottom=0;right=0;pointerEvents=1;fontSize=16;" vertex="1" parent="xVHLyGwYPvTKptaAiEEM-95">
          <mxGeometry x="253" width="127" height="27" as="geometry">
            <mxRectangle width="127" height="27" as="alternateBounds" />
          </mxGeometry>
        </mxCell>
        <mxCell id="xVHLyGwYPvTKptaAiEEM-99" value="" style="shape=tableRow;horizontal=0;startSize=0;swimlaneHead=0;swimlaneBody=0;strokeColor=inherit;top=0;left=0;bottom=0;right=0;collapsible=0;dropTarget=0;fillColor=none;points=[[0,0.5],[1,0.5]];portConstraint=eastwest;fontSize=16;" vertex="1" parent="xVHLyGwYPvTKptaAiEEM-94">
          <mxGeometry y="27" width="380" height="23" as="geometry" />
        </mxCell>
        <mxCell id="xVHLyGwYPvTKptaAiEEM-100" value="" style="shape=partialRectangle;html=1;whiteSpace=wrap;connectable=0;strokeColor=inherit;overflow=hidden;fillColor=none;top=0;left=0;bottom=0;right=0;pointerEvents=1;fontSize=16;" vertex="1" parent="xVHLyGwYPvTKptaAiEEM-99">
          <mxGeometry width="127" height="23" as="geometry">
            <mxRectangle width="127" height="23" as="alternateBounds" />
          </mxGeometry>
        </mxCell>
        <mxCell id="xVHLyGwYPvTKptaAiEEM-101" value="" style="shape=partialRectangle;html=1;whiteSpace=wrap;connectable=0;strokeColor=inherit;overflow=hidden;fillColor=none;top=0;left=0;bottom=0;right=0;pointerEvents=1;fontSize=16;" vertex="1" parent="xVHLyGwYPvTKptaAiEEM-99">
          <mxGeometry x="127" width="126" height="23" as="geometry">
            <mxRectangle width="126" height="23" as="alternateBounds" />
          </mxGeometry>
        </mxCell>
        <mxCell id="xVHLyGwYPvTKptaAiEEM-102" value="" style="shape=partialRectangle;html=1;whiteSpace=wrap;connectable=0;strokeColor=inherit;overflow=hidden;fillColor=none;top=0;left=0;bottom=0;right=0;pointerEvents=1;fontSize=16;" vertex="1" parent="xVHLyGwYPvTKptaAiEEM-99">
          <mxGeometry x="253" width="127" height="23" as="geometry">
            <mxRectangle width="127" height="23" as="alternateBounds" />
          </mxGeometry>
        </mxCell>
        <mxCell id="xVHLyGwYPvTKptaAiEEM-103" value="" style="shape=tableRow;horizontal=0;startSize=0;swimlaneHead=0;swimlaneBody=0;strokeColor=inherit;top=0;left=0;bottom=0;right=0;collapsible=0;dropTarget=0;fillColor=none;points=[[0,0.5],[1,0.5]];portConstraint=eastwest;fontSize=16;" vertex="1" parent="xVHLyGwYPvTKptaAiEEM-94">
          <mxGeometry y="50" width="380" height="27" as="geometry" />
        </mxCell>
        <mxCell id="xVHLyGwYPvTKptaAiEEM-104" value="" style="shape=partialRectangle;html=1;whiteSpace=wrap;connectable=0;strokeColor=inherit;overflow=hidden;fillColor=none;top=0;left=0;bottom=0;right=0;pointerEvents=1;fontSize=16;" vertex="1" parent="xVHLyGwYPvTKptaAiEEM-103">
          <mxGeometry width="127" height="27" as="geometry">
            <mxRectangle width="127" height="27" as="alternateBounds" />
          </mxGeometry>
        </mxCell>
        <mxCell id="xVHLyGwYPvTKptaAiEEM-105" value="" style="shape=partialRectangle;html=1;whiteSpace=wrap;connectable=0;strokeColor=inherit;overflow=hidden;fillColor=none;top=0;left=0;bottom=0;right=0;pointerEvents=1;fontSize=16;" vertex="1" parent="xVHLyGwYPvTKptaAiEEM-103">
          <mxGeometry x="127" width="126" height="27" as="geometry">
            <mxRectangle width="126" height="27" as="alternateBounds" />
          </mxGeometry>
        </mxCell>
        <mxCell id="xVHLyGwYPvTKptaAiEEM-106" value="" style="shape=partialRectangle;html=1;whiteSpace=wrap;connectable=0;strokeColor=inherit;overflow=hidden;fillColor=none;top=0;left=0;bottom=0;right=0;pointerEvents=1;fontSize=16;" vertex="1" parent="xVHLyGwYPvTKptaAiEEM-103">
          <mxGeometry x="253" width="127" height="27" as="geometry">
            <mxRectangle width="127" height="27" as="alternateBounds" />
          </mxGeometry>
        </mxCell>
        <mxCell id="xVHLyGwYPvTKptaAiEEM-107" value="" style="shape=table;startSize=0;container=1;collapsible=0;childLayout=tableLayout;fontSize=16;" vertex="1" parent="1">
          <mxGeometry x="295" y="651" width="380" height="154" as="geometry" />
        </mxCell>
        <mxCell id="xVHLyGwYPvTKptaAiEEM-108" value="" style="shape=tableRow;horizontal=0;startSize=0;swimlaneHead=0;swimlaneBody=0;strokeColor=inherit;top=0;left=0;bottom=0;right=0;collapsible=0;dropTarget=0;fillColor=none;points=[[0,0.5],[1,0.5]];portConstraint=eastwest;fontSize=16;" vertex="1" parent="xVHLyGwYPvTKptaAiEEM-107">
          <mxGeometry width="380" height="27" as="geometry" />
        </mxCell>
        <mxCell id="xVHLyGwYPvTKptaAiEEM-109" value="" style="shape=partialRectangle;html=1;whiteSpace=wrap;connectable=0;strokeColor=inherit;overflow=hidden;fillColor=none;top=0;left=0;bottom=0;right=0;pointerEvents=1;fontSize=16;" vertex="1" parent="xVHLyGwYPvTKptaAiEEM-108">
          <mxGeometry width="127" height="27" as="geometry">
            <mxRectangle width="127" height="27" as="alternateBounds" />
          </mxGeometry>
        </mxCell>
        <mxCell id="xVHLyGwYPvTKptaAiEEM-110" value="" style="shape=partialRectangle;html=1;whiteSpace=wrap;connectable=0;strokeColor=inherit;overflow=hidden;fillColor=none;top=0;left=0;bottom=0;right=0;pointerEvents=1;fontSize=16;" vertex="1" parent="xVHLyGwYPvTKptaAiEEM-108">
          <mxGeometry x="127" width="126" height="27" as="geometry">
            <mxRectangle width="126" height="27" as="alternateBounds" />
          </mxGeometry>
        </mxCell>
        <mxCell id="xVHLyGwYPvTKptaAiEEM-111" value="" style="shape=partialRectangle;html=1;whiteSpace=wrap;connectable=0;strokeColor=inherit;overflow=hidden;fillColor=none;top=0;left=0;bottom=0;right=0;pointerEvents=1;fontSize=16;" vertex="1" parent="xVHLyGwYPvTKptaAiEEM-108">
          <mxGeometry x="253" width="127" height="27" as="geometry">
            <mxRectangle width="127" height="27" as="alternateBounds" />
          </mxGeometry>
        </mxCell>
        <mxCell id="xVHLyGwYPvTKptaAiEEM-112" value="" style="shape=tableRow;horizontal=0;startSize=0;swimlaneHead=0;swimlaneBody=0;strokeColor=inherit;top=0;left=0;bottom=0;right=0;collapsible=0;dropTarget=0;fillColor=none;points=[[0,0.5],[1,0.5]];portConstraint=eastwest;fontSize=16;" vertex="1" parent="xVHLyGwYPvTKptaAiEEM-107">
          <mxGeometry y="27" width="380" height="23" as="geometry" />
        </mxCell>
        <mxCell id="xVHLyGwYPvTKptaAiEEM-113" value="" style="shape=partialRectangle;html=1;whiteSpace=wrap;connectable=0;strokeColor=inherit;overflow=hidden;fillColor=none;top=0;left=0;bottom=0;right=0;pointerEvents=1;fontSize=16;" vertex="1" parent="xVHLyGwYPvTKptaAiEEM-112">
          <mxGeometry width="127" height="23" as="geometry">
            <mxRectangle width="127" height="23" as="alternateBounds" />
          </mxGeometry>
        </mxCell>
        <mxCell id="xVHLyGwYPvTKptaAiEEM-114" value="" style="shape=partialRectangle;html=1;whiteSpace=wrap;connectable=0;strokeColor=inherit;overflow=hidden;fillColor=none;top=0;left=0;bottom=0;right=0;pointerEvents=1;fontSize=16;" vertex="1" parent="xVHLyGwYPvTKptaAiEEM-112">
          <mxGeometry x="127" width="126" height="23" as="geometry">
            <mxRectangle width="126" height="23" as="alternateBounds" />
          </mxGeometry>
        </mxCell>
        <mxCell id="xVHLyGwYPvTKptaAiEEM-115" value="" style="shape=partialRectangle;html=1;whiteSpace=wrap;connectable=0;strokeColor=inherit;overflow=hidden;fillColor=none;top=0;left=0;bottom=0;right=0;pointerEvents=1;fontSize=16;" vertex="1" parent="xVHLyGwYPvTKptaAiEEM-112">
          <mxGeometry x="253" width="127" height="23" as="geometry">
            <mxRectangle width="127" height="23" as="alternateBounds" />
          </mxGeometry>
        </mxCell>
        <mxCell id="xVHLyGwYPvTKptaAiEEM-116" value="" style="shape=tableRow;horizontal=0;startSize=0;swimlaneHead=0;swimlaneBody=0;strokeColor=inherit;top=0;left=0;bottom=0;right=0;collapsible=0;dropTarget=0;fillColor=none;points=[[0,0.5],[1,0.5]];portConstraint=eastwest;fontSize=16;" vertex="1" parent="xVHLyGwYPvTKptaAiEEM-107">
          <mxGeometry y="50" width="380" height="27" as="geometry" />
        </mxCell>
        <mxCell id="xVHLyGwYPvTKptaAiEEM-117" value="" style="shape=partialRectangle;html=1;whiteSpace=wrap;connectable=0;strokeColor=inherit;overflow=hidden;fillColor=none;top=0;left=0;bottom=0;right=0;pointerEvents=1;fontSize=16;" vertex="1" parent="xVHLyGwYPvTKptaAiEEM-116">
          <mxGeometry width="127" height="27" as="geometry">
            <mxRectangle width="127" height="27" as="alternateBounds" />
          </mxGeometry>
        </mxCell>
        <mxCell id="xVHLyGwYPvTKptaAiEEM-118" value="" style="shape=partialRectangle;html=1;whiteSpace=wrap;connectable=0;strokeColor=inherit;overflow=hidden;fillColor=none;top=0;left=0;bottom=0;right=0;pointerEvents=1;fontSize=16;" vertex="1" parent="xVHLyGwYPvTKptaAiEEM-116">
          <mxGeometry x="127" width="126" height="27" as="geometry">
            <mxRectangle width="126" height="27" as="alternateBounds" />
          </mxGeometry>
        </mxCell>
        <mxCell id="xVHLyGwYPvTKptaAiEEM-119" value="" style="shape=partialRectangle;html=1;whiteSpace=wrap;connectable=0;strokeColor=inherit;overflow=hidden;fillColor=none;top=0;left=0;bottom=0;right=0;pointerEvents=1;fontSize=16;" vertex="1" parent="xVHLyGwYPvTKptaAiEEM-116">
          <mxGeometry x="253" width="127" height="27" as="geometry">
            <mxRectangle width="127" height="27" as="alternateBounds" />
          </mxGeometry>
        </mxCell>
        <mxCell id="xVHLyGwYPvTKptaAiEEM-121" value="" style="shape=tableRow;horizontal=0;startSize=0;swimlaneHead=0;swimlaneBody=0;strokeColor=inherit;top=0;left=0;bottom=0;right=0;collapsible=0;dropTarget=0;fillColor=none;points=[[0,0.5],[1,0.5]];portConstraint=eastwest;fontSize=16;" vertex="1" parent="xVHLyGwYPvTKptaAiEEM-107">
          <mxGeometry y="77" width="380" height="27" as="geometry" />
        </mxCell>
        <mxCell id="xVHLyGwYPvTKptaAiEEM-122" value="" style="shape=partialRectangle;html=1;whiteSpace=wrap;connectable=0;strokeColor=inherit;overflow=hidden;fillColor=none;top=0;left=0;bottom=0;right=0;pointerEvents=1;fontSize=16;" vertex="1" parent="xVHLyGwYPvTKptaAiEEM-121">
          <mxGeometry width="127" height="27" as="geometry">
            <mxRectangle width="127" height="27" as="alternateBounds" />
          </mxGeometry>
        </mxCell>
        <mxCell id="xVHLyGwYPvTKptaAiEEM-123" value="" style="shape=partialRectangle;html=1;whiteSpace=wrap;connectable=0;strokeColor=inherit;overflow=hidden;fillColor=none;top=0;left=0;bottom=0;right=0;pointerEvents=1;fontSize=16;" vertex="1" parent="xVHLyGwYPvTKptaAiEEM-121">
          <mxGeometry x="127" width="126" height="27" as="geometry">
            <mxRectangle width="126" height="27" as="alternateBounds" />
          </mxGeometry>
        </mxCell>
        <mxCell id="xVHLyGwYPvTKptaAiEEM-124" value="" style="shape=partialRectangle;html=1;whiteSpace=wrap;connectable=0;strokeColor=inherit;overflow=hidden;fillColor=none;top=0;left=0;bottom=0;right=0;pointerEvents=1;fontSize=16;" vertex="1" parent="xVHLyGwYPvTKptaAiEEM-121">
          <mxGeometry x="253" width="127" height="27" as="geometry">
            <mxRectangle width="127" height="27" as="alternateBounds" />
          </mxGeometry>
        </mxCell>
        <mxCell id="xVHLyGwYPvTKptaAiEEM-125" value="" style="shape=tableRow;horizontal=0;startSize=0;swimlaneHead=0;swimlaneBody=0;strokeColor=inherit;top=0;left=0;bottom=0;right=0;collapsible=0;dropTarget=0;fillColor=none;points=[[0,0.5],[1,0.5]];portConstraint=eastwest;fontSize=16;" vertex="1" parent="xVHLyGwYPvTKptaAiEEM-107">
          <mxGeometry y="104" width="380" height="23" as="geometry" />
        </mxCell>
        <mxCell id="xVHLyGwYPvTKptaAiEEM-126" value="" style="shape=partialRectangle;html=1;whiteSpace=wrap;connectable=0;strokeColor=inherit;overflow=hidden;fillColor=none;top=0;left=0;bottom=0;right=0;pointerEvents=1;fontSize=16;" vertex="1" parent="xVHLyGwYPvTKptaAiEEM-125">
          <mxGeometry width="127" height="23" as="geometry">
            <mxRectangle width="127" height="23" as="alternateBounds" />
          </mxGeometry>
        </mxCell>
        <mxCell id="xVHLyGwYPvTKptaAiEEM-127" value="" style="shape=partialRectangle;html=1;whiteSpace=wrap;connectable=0;strokeColor=inherit;overflow=hidden;fillColor=none;top=0;left=0;bottom=0;right=0;pointerEvents=1;fontSize=16;" vertex="1" parent="xVHLyGwYPvTKptaAiEEM-125">
          <mxGeometry x="127" width="126" height="23" as="geometry">
            <mxRectangle width="126" height="23" as="alternateBounds" />
          </mxGeometry>
        </mxCell>
        <mxCell id="xVHLyGwYPvTKptaAiEEM-128" value="" style="shape=partialRectangle;html=1;whiteSpace=wrap;connectable=0;strokeColor=inherit;overflow=hidden;fillColor=none;top=0;left=0;bottom=0;right=0;pointerEvents=1;fontSize=16;" vertex="1" parent="xVHLyGwYPvTKptaAiEEM-125">
          <mxGeometry x="253" width="127" height="23" as="geometry">
            <mxRectangle width="127" height="23" as="alternateBounds" />
          </mxGeometry>
        </mxCell>
        <mxCell id="xVHLyGwYPvTKptaAiEEM-129" value="" style="shape=tableRow;horizontal=0;startSize=0;swimlaneHead=0;swimlaneBody=0;strokeColor=inherit;top=0;left=0;bottom=0;right=0;collapsible=0;dropTarget=0;fillColor=none;points=[[0,0.5],[1,0.5]];portConstraint=eastwest;fontSize=16;" vertex="1" parent="xVHLyGwYPvTKptaAiEEM-107">
          <mxGeometry y="127" width="380" height="27" as="geometry" />
        </mxCell>
        <mxCell id="xVHLyGwYPvTKptaAiEEM-130" value="" style="shape=partialRectangle;html=1;whiteSpace=wrap;connectable=0;strokeColor=inherit;overflow=hidden;fillColor=none;top=0;left=0;bottom=0;right=0;pointerEvents=1;fontSize=16;" vertex="1" parent="xVHLyGwYPvTKptaAiEEM-129">
          <mxGeometry width="127" height="27" as="geometry">
            <mxRectangle width="127" height="27" as="alternateBounds" />
          </mxGeometry>
        </mxCell>
        <mxCell id="xVHLyGwYPvTKptaAiEEM-131" value="" style="shape=partialRectangle;html=1;whiteSpace=wrap;connectable=0;strokeColor=inherit;overflow=hidden;fillColor=none;top=0;left=0;bottom=0;right=0;pointerEvents=1;fontSize=16;" vertex="1" parent="xVHLyGwYPvTKptaAiEEM-129">
          <mxGeometry x="127" width="126" height="27" as="geometry">
            <mxRectangle width="126" height="27" as="alternateBounds" />
          </mxGeometry>
        </mxCell>
        <mxCell id="xVHLyGwYPvTKptaAiEEM-132" value="" style="shape=partialRectangle;html=1;whiteSpace=wrap;connectable=0;strokeColor=inherit;overflow=hidden;fillColor=none;top=0;left=0;bottom=0;right=0;pointerEvents=1;fontSize=16;" vertex="1" parent="xVHLyGwYPvTKptaAiEEM-129">
          <mxGeometry x="253" width="127" height="27" as="geometry">
            <mxRectangle width="127" height="27" as="alternateBounds" />
          </mxGeometry>
        </mxCell>
        <mxCell id="xVHLyGwYPvTKptaAiEEM-133" value="" style="shape=table;startSize=0;container=1;collapsible=0;childLayout=tableLayout;fontSize=16;" vertex="1" parent="1">
          <mxGeometry x="295" y="805" width="380" height="77" as="geometry" />
        </mxCell>
        <mxCell id="xVHLyGwYPvTKptaAiEEM-134" value="" style="shape=tableRow;horizontal=0;startSize=0;swimlaneHead=0;swimlaneBody=0;strokeColor=inherit;top=0;left=0;bottom=0;right=0;collapsible=0;dropTarget=0;fillColor=none;points=[[0,0.5],[1,0.5]];portConstraint=eastwest;fontSize=16;" vertex="1" parent="xVHLyGwYPvTKptaAiEEM-133">
          <mxGeometry width="380" height="27" as="geometry" />
        </mxCell>
        <mxCell id="xVHLyGwYPvTKptaAiEEM-135" value="" style="shape=partialRectangle;html=1;whiteSpace=wrap;connectable=0;strokeColor=inherit;overflow=hidden;fillColor=none;top=0;left=0;bottom=0;right=0;pointerEvents=1;fontSize=16;" vertex="1" parent="xVHLyGwYPvTKptaAiEEM-134">
          <mxGeometry width="127" height="27" as="geometry">
            <mxRectangle width="127" height="27" as="alternateBounds" />
          </mxGeometry>
        </mxCell>
        <mxCell id="xVHLyGwYPvTKptaAiEEM-136" value="" style="shape=partialRectangle;html=1;whiteSpace=wrap;connectable=0;strokeColor=inherit;overflow=hidden;fillColor=none;top=0;left=0;bottom=0;right=0;pointerEvents=1;fontSize=16;" vertex="1" parent="xVHLyGwYPvTKptaAiEEM-134">
          <mxGeometry x="127" width="126" height="27" as="geometry">
            <mxRectangle width="126" height="27" as="alternateBounds" />
          </mxGeometry>
        </mxCell>
        <mxCell id="xVHLyGwYPvTKptaAiEEM-137" value="" style="shape=partialRectangle;html=1;whiteSpace=wrap;connectable=0;strokeColor=inherit;overflow=hidden;fillColor=none;top=0;left=0;bottom=0;right=0;pointerEvents=1;fontSize=16;" vertex="1" parent="xVHLyGwYPvTKptaAiEEM-134">
          <mxGeometry x="253" width="127" height="27" as="geometry">
            <mxRectangle width="127" height="27" as="alternateBounds" />
          </mxGeometry>
        </mxCell>
        <mxCell id="xVHLyGwYPvTKptaAiEEM-138" value="" style="shape=tableRow;horizontal=0;startSize=0;swimlaneHead=0;swimlaneBody=0;strokeColor=inherit;top=0;left=0;bottom=0;right=0;collapsible=0;dropTarget=0;fillColor=none;points=[[0,0.5],[1,0.5]];portConstraint=eastwest;fontSize=16;" vertex="1" parent="xVHLyGwYPvTKptaAiEEM-133">
          <mxGeometry y="27" width="380" height="23" as="geometry" />
        </mxCell>
        <mxCell id="xVHLyGwYPvTKptaAiEEM-139" value="" style="shape=partialRectangle;html=1;whiteSpace=wrap;connectable=0;strokeColor=inherit;overflow=hidden;fillColor=none;top=0;left=0;bottom=0;right=0;pointerEvents=1;fontSize=16;" vertex="1" parent="xVHLyGwYPvTKptaAiEEM-138">
          <mxGeometry width="127" height="23" as="geometry">
            <mxRectangle width="127" height="23" as="alternateBounds" />
          </mxGeometry>
        </mxCell>
        <mxCell id="xVHLyGwYPvTKptaAiEEM-140" value="" style="shape=partialRectangle;html=1;whiteSpace=wrap;connectable=0;strokeColor=inherit;overflow=hidden;fillColor=none;top=0;left=0;bottom=0;right=0;pointerEvents=1;fontSize=16;" vertex="1" parent="xVHLyGwYPvTKptaAiEEM-138">
          <mxGeometry x="127" width="126" height="23" as="geometry">
            <mxRectangle width="126" height="23" as="alternateBounds" />
          </mxGeometry>
        </mxCell>
        <mxCell id="xVHLyGwYPvTKptaAiEEM-141" value="" style="shape=partialRectangle;html=1;whiteSpace=wrap;connectable=0;strokeColor=inherit;overflow=hidden;fillColor=none;top=0;left=0;bottom=0;right=0;pointerEvents=1;fontSize=16;" vertex="1" parent="xVHLyGwYPvTKptaAiEEM-138">
          <mxGeometry x="253" width="127" height="23" as="geometry">
            <mxRectangle width="127" height="23" as="alternateBounds" />
          </mxGeometry>
        </mxCell>
        <mxCell id="xVHLyGwYPvTKptaAiEEM-142" value="" style="shape=tableRow;horizontal=0;startSize=0;swimlaneHead=0;swimlaneBody=0;strokeColor=inherit;top=0;left=0;bottom=0;right=0;collapsible=0;dropTarget=0;fillColor=none;points=[[0,0.5],[1,0.5]];portConstraint=eastwest;fontSize=16;" vertex="1" parent="xVHLyGwYPvTKptaAiEEM-133">
          <mxGeometry y="50" width="380" height="27" as="geometry" />
        </mxCell>
        <mxCell id="xVHLyGwYPvTKptaAiEEM-143" value="" style="shape=partialRectangle;html=1;whiteSpace=wrap;connectable=0;strokeColor=inherit;overflow=hidden;fillColor=none;top=0;left=0;bottom=0;right=0;pointerEvents=1;fontSize=16;" vertex="1" parent="xVHLyGwYPvTKptaAiEEM-142">
          <mxGeometry width="127" height="27" as="geometry">
            <mxRectangle width="127" height="27" as="alternateBounds" />
          </mxGeometry>
        </mxCell>
        <mxCell id="xVHLyGwYPvTKptaAiEEM-144" value="" style="shape=partialRectangle;html=1;whiteSpace=wrap;connectable=0;strokeColor=inherit;overflow=hidden;fillColor=none;top=0;left=0;bottom=0;right=0;pointerEvents=1;fontSize=16;" vertex="1" parent="xVHLyGwYPvTKptaAiEEM-142">
          <mxGeometry x="127" width="126" height="27" as="geometry">
            <mxRectangle width="126" height="27" as="alternateBounds" />
          </mxGeometry>
        </mxCell>
        <mxCell id="xVHLyGwYPvTKptaAiEEM-145" value="" style="shape=partialRectangle;html=1;whiteSpace=wrap;connectable=0;strokeColor=inherit;overflow=hidden;fillColor=none;top=0;left=0;bottom=0;right=0;pointerEvents=1;fontSize=16;" vertex="1" parent="xVHLyGwYPvTKptaAiEEM-142">
          <mxGeometry x="253" width="127" height="27" as="geometry">
            <mxRectangle width="127" height="27" as="alternateBounds" />
          </mxGeometry>
        </mxCell>
        <mxCell id="xVHLyGwYPvTKptaAiEEM-147" value="&lt;font style=&quot;vertical-align: inherit;&quot;&gt;&lt;font style=&quot;vertical-align: inherit;&quot;&gt;ESTOQUE&lt;/font&gt;&lt;/font&gt;" style="text;strokeColor=none;fillColor=none;html=1;fontSize=24;fontStyle=1;verticalAlign=middle;align=center;" vertex="1" parent="1">
          <mxGeometry x="435" y="260" width="100" height="40" as="geometry" />
        </mxCell>
        <mxCell id="xVHLyGwYPvTKptaAiEEM-148" value="&lt;font style=&quot;vertical-align: inherit;&quot;&gt;&lt;font style=&quot;vertical-align: inherit;&quot;&gt;PRODUTO&lt;/font&gt;&lt;/font&gt;" style="text;html=1;align=center;verticalAlign=middle;whiteSpace=wrap;rounded=0;" vertex="1" parent="1">
          <mxGeometry x="330" y="320" width="60" height="30" as="geometry" />
        </mxCell>
        <mxCell id="xVHLyGwYPvTKptaAiEEM-149" value="&lt;font style=&quot;vertical-align: inherit;&quot;&gt;&lt;font style=&quot;vertical-align: inherit;&quot;&gt;QUANTIDADE&lt;/font&gt;&lt;/font&gt;" style="text;html=1;align=center;verticalAlign=middle;whiteSpace=wrap;rounded=0;" vertex="1" parent="1">
          <mxGeometry x="455" y="320" width="60" height="30" as="geometry" />
        </mxCell>
        <mxCell id="xVHLyGwYPvTKptaAiEEM-150" value="&lt;font style=&quot;vertical-align: inherit;&quot;&gt;&lt;font style=&quot;vertical-align: inherit;&quot;&gt;ENTREQUE&lt;/font&gt;&lt;/font&gt;" style="text;html=1;align=center;verticalAlign=middle;whiteSpace=wrap;rounded=0;" vertex="1" parent="1">
          <mxGeometry x="590" y="320" width="60" height="30" as="geometry" />
        </mxCell>
        <mxCell id="xVHLyGwYPvTKptaAiEEM-151" value="" style="verticalLabelPosition=bottom;verticalAlign=top;html=1;shape=mxgraph.basic.tick;fillColor=#d5e8d4;strokeColor=#82b366;" vertex="1" parent="1">
          <mxGeometry x="535" y="900" width="65" height="70" as="geometry" />
        </mxCell>
        <mxCell id="xVHLyGwYPvTKptaAiEEM-152" value="" style="verticalLabelPosition=bottom;verticalAlign=top;html=1;shape=mxgraph.basic.x;fillColor=#f8cecc;strokeColor=#b85450;" vertex="1" parent="1">
          <mxGeometry x="379" y="910" width="70" height="60" as="geometry" />
        </mxCell>
      </root>
    </mxGraphModel>
  </diagram>
</mxfile>
